<svg xmlns="http://www.w3.org/2000/svg" width="805" height="600"><rect width="805" height="600" x="0" y="0" fill="#FFFFFF" id="background"/><g transform="translate(30,20)" id="visualization"><g><rect x="0" y="142.5" height="220.02232595900142" width="5" fill="black"><title>Ficción: 20075</title></rect><rect x="370" y="97.49999999999994" height="58.50456667343212" width="5" fill="black"><title>Ficción Histórica: 5338</title></rect><rect x="0" y="367.5223259590014" height="49.97767404099858" width="5" fill="black"><title>No Ficción: 4560</title></rect><rect x="370" y="161.00456667343207" height="44.179825451593274" width="5" fill="black"><title>Ficción Contemporánea: 4031</title></rect><rect x="370" y="210.18439212502534" height="32.5293281915973" width="5" fill="black"><title>Misterio: 2968</title></rect><rect x="370" y="247.71372031662264" height="28.86868276841892" width="5" fill="black"><title>Romance: 2634</title></rect><rect x="370" y="281.58240308504156" height="28.09052161558759" width="5" fill="black"><title>Fantasía: 2563</title></rect><rect x="370" y="314.67292470062915" height="20.210269941140666" width="5" fill="black"><title>Biografía: 1844</title></rect><rect x="740" y="1.1368683772161603e-13" height="15.957783641160972" width="5" fill="black"><title>Antigua Roma: 1456</title></rect><rect x="740" y="20.957783641161086" height="12.987619240917397" width="5" fill="black"><title>Drama Romántico: 1185</title></rect><rect x="740" y="38.94540288207848" height="11.047696366957553" width="5" fill="black"><title>Tragedia / Drama: 1008</title></rect><rect x="740" y="54.993099249036035" height="10.970976253298161" width="5" fill="black"><title>Thriller Psicológico: 1001</title></rect><rect x="740" y="70.9640755023342" height="8.778973005885916" width="5" fill="black"><title>Mitología Retold: 801</title></rect><rect x="370" y="339.8831946417698" height="8.537852648670594" width="5" fill="black"><title>Autoayuda: 779</title></rect><rect x="370" y="353.4210472904404" height="8.494012583722338" width="5" fill="black"><title>Juvenil: 775</title></rect><rect x="740" y="84.74304850822011" height="7.891211690683974" width="5" fill="black"><title>Drama Psicológico: 720</title></rect><rect x="740" y="97.63426019890409" height="7.715851430891007" width="5" fill="black"><title>Romance Histórico: 704</title></rect><rect x="740" y="110.3501116297951" height="7.628171300994495" width="5" fill="black"><title>Thriller Policial: 696</title></rect><rect x="740" y="122.97828293078959" height="7.452811041201528" width="5" fill="black"><title>Viajes en el tiempo: 680</title></rect><rect x="740" y="135.43109397199112" height="7.343210878830945" width="5" fill="black"><title>Saga Familiar: 670</title></rect><rect x="740" y="147.77430485082206" height="7.014410391719082" width="5" fill="black"><title>Chick-Lit: 640</title></rect><rect x="740" y="159.78871524254114" height="6.839050131926143" width="5" fill="black"><title>Finanzas / Crimen: 624</title></rect><rect x="740" y="171.6277653744673" height="6.49928962857723" width="5" fill="black"><title>Segunda Guerra Mundial: 593</title></rect><rect x="740" y="183.12705500304452" height="6.488329612340181" width="5" fill="black"><title>Realismo Mágico / Drama: 592</title></rect><rect x="740" y="194.6153846153847" height="6.12664907651714" width="5" fill="black"><title>Dark Academia: 559</title></rect><rect x="740" y="205.74203369190184" height="5.962248832961222" width="5" fill="black"><title>Thriller de Guerra: 544</title></rect><rect x="740" y="216.70428252486306" height="5.60056829713821" width="5" fill="black"><title>Ensayos: 511</title></rect><rect x="370" y="366.91505987416275" height="5.5567282321899825" width="5" fill="black"><title>Ficción: 507</title></rect><rect x="370" y="377.47178810635273" height="5.260807793789354" width="5" fill="black"><title>No Ficción: 480</title></rect><rect x="740" y="227.30485082200127" height="5.173127663892842" width="5" fill="black"><title>Drama Emocional: 472</title></rect><rect x="370" y="387.7325959001421" height="5.08544753399633" width="5" fill="black"><title>Psicología: 464</title></rect><rect x="740" y="237.4779784858941" height="4.8224071443068794" width="5" fill="black"><title>Finanzas y Poder: 440</title></rect><rect x="740" y="247.300385630201" height="4.7566470468844955" width="5" fill="black"><title>Drama de Hollywood: 434</title></rect><rect x="740" y="257.0570326770855" height="4.614166835802678" width="5" fill="black"><title>Literatura Chilena: 421</title></rect><rect x="740" y="266.67119951288817" height="4.559366754617429" width="5" fill="black"><title>Thriller Histórico: 416</title></rect><rect x="740" y="276.2305662675056" height="4.373046478587355" width="5" fill="black"><title>Cultura del Videojuego: 399</title></rect><rect x="740" y="285.60361274609295" height="4.230566267505594" width="5" fill="black"><title>Drama Contemporáneo: 386</title></rect><rect x="740" y="294.83417901359854" height="4.208646235031438" width="5" fill="black"><title>Drama Familiar: 384</title></rect><rect x="740" y="304.04282524863" height="4.208646235031438" width="5" fill="black"><title>Ciencia Ficción Soft: 384</title></rect><rect x="740" y="313.2514714836614" height="4.142886137609082" width="5" fill="black"><title>Realismo Mágico: 378</title></rect><rect x="740" y="322.3943576212705" height="4.077126040186727" width="5" fill="black"><title>True Crime: 372</title></rect><rect x="740" y="331.4714836614572" height="4.033285975238471" width="5" fill="black"><title>Memorias / Relaciones: 368</title></rect><rect x="370" y="397.8180434341384" height="3.978485894053165" width="5" fill="black"><title>Clásico: 363</title></rect><rect x="740" y="340.5047696366957" height="3.7702455855490484" width="5" fill="black"><title>Crítica Social / Redes: 344</title></rect><rect x="740" y="349.27501522224475" height="3.7154455043637427" width="5" fill="black"><title>Productividad: 339</title></rect><rect x="370" y="406.7965293281916" height="3.4962451796225196" width="5" fill="black"><title>Sátira: 319</title></rect><rect x="740" y="357.9904607266085" height="3.4962451796224627" width="5" fill="black"><title>Thriller Contemporáneo: 319</title></rect><rect x="370" y="415.2927745078141" height="3.386645017251908" width="5" fill="black"><title>Sociología: 309</title></rect><rect x="740" y="366.48670590623095" height="3.386645017251851" width="5" fill="black"><title>Psicología del Éxito: 309</title></rect><rect x="740" y="374.8733509234828" height="3.3318449360665454" width="5" fill="black"><title>Novela Filosófica: 304</title></rect><rect x="740" y="383.20519585954935" height="3.3318449360665454" width="5" fill="black"><title>Ensayos / Relaciones: 304</title></rect><rect x="740" y="391.5370407956159" height="3.1564846762735783" width="5" fill="black"><title>Aventura y Supervivencia: 288</title></rect><rect x="740" y="399.6935254718895" height="3.1564846762735783" width="5" fill="black"><title>Fantasía Contemporánea: 288</title></rect><rect x="740" y="407.85001014816305" height="3.068804546377123" width="5" fill="black"><title>Literatura Brasileña: 280</title></rect><rect x="740" y="415.9188146945402" height="3.0578445301400734" width="5" fill="black"><title>Romance de época: 279</title></rect><rect x="370" y="423.679419525066" height="3.035924497665917" width="5" fill="black"><title>Ciencia: 277</title></rect><rect x="740" y="423.97665922468025" height="3.035924497665917" width="5" fill="black"><title>Neurociencia: 277</title></rect><rect x="740" y="432.01258372234616" height="2.981124416480611" width="5" fill="black"><title>Desarrollo Profesional: 272</title></rect><rect x="740" y="439.9937081388268" height="2.9263243352953054" width="5" fill="black"><title>Existencialismo: 267</title></rect><rect x="740" y="447.9200324741221" height="2.45504363710171" width="5" fill="black"><title>Suspenso Romántico: 224</title></rect><rect x="740" y="455.3750761112238" height="2.367363507205141" width="5" fill="black"><title>Novela Coral: 216</title></rect><rect x="370" y="431.7153440227319" height="2.323523442256942" width="5" fill="black"><title>Crónica: 212</title></rect><rect x="370" y="439.03886746498887" height="2.2906433935457358" width="5" fill="black"><title>Terror: 209</title></rect><rect x="740" y="462.74243961842893" height="2.2906433935457926" width="5" fill="black"><title>Distopía / Horror: 209</title></rect><rect x="740" y="470.0330830119747" height="2.22488329612338" width="5" fill="black"><title>Fábula Espiritual: 203</title></rect><rect x="740" y="477.2579663080981" height="2.192003247412231" width="5" fill="black"><title>Culinaria Japonesiva: 200</title></rect><rect x="740" y="484.44996955551034" height="2.192003247412231" width="5" fill="black"><title>Dictadura Argentina: 200</title></rect><rect x="370" y="446.3295108585346" height="2.137203166226925" width="5" fill="black"><title>Negocios: 195</title></rect><rect x="740" y="491.64197280292257" height="2.137203166226925" width="5" fill="black"><title>Emprendimiento: 195</title></rect><rect x="740" y="498.7791759691495" height="2.104323117515719" width="5" fill="black"><title>Novela Policial: 192</title></rect><rect x="740" y="505.8834990866652" height="2.104323117515719" width="5" fill="black"><title>Memorias: 192</title></rect><rect x="370" y="453.46671402476153" height="2.0166429876192637" width="5" fill="black"><title>Ciencia Ficción: 184</title></rect><rect x="370" y="460.4833570123808" height="2.0166429876193206" width="5" fill="black"><title>Cuento: 184</title></rect><rect x="740" y="512.9878222041809" height="2.016642987619207" width="5" fill="black"><title>Distopía: 184</title></rect><rect x="740" y="520.0044651918001" height="2.016642987619207" width="5" fill="black"><title>Ficción Argentina: 184</title></rect><rect x="740" y="527.0211081794193" height="1.9289628577228086" width="5" fill="black"><title>Feminismo: 176</title></rect><rect x="740" y="533.9500710371422" height="1.841282727826183" width="5" fill="black"><title>Espiritualidad: 168</title></rect><rect x="740" y="540.7913537649683" height="1.8084026791150336" width="5" fill="black"><title>Memorias / Holocausto: 165</title></rect><rect x="740" y="547.5997564440834" height="1.4796021920033127" width="5" fill="black"><title>Drama Social: 135</title></rect><rect x="740" y="554.0793586360867" height="0.9206413639130915" width="5" fill="black"><title>Romance Psicológico: 84</title></rect><rect x="740" y="559.9999999999998" height="0" width="5" fill="black"><title>Novela Negra Argentina: 0</title></rect></g><g fill="none" stroke-opacity="0.8"><g style="mix-blend-mode: multiply;"><path d="M5,377.6274609295717C187.5,377.6274609295717,187.5,324.77805967119946,370,324.77805967119946" stroke="#b8e0d2" stroke-width="20.210269941140655"/><title>No Ficción → Biografía: 1844</title></g><g style="mix-blend-mode: multiply;"><path d="M5,416.43139841688645C187.5,416.43139841688645,187.5,447.39811244164804,370,447.39811244164804" stroke="#b8e0d2" stroke-width="2.137203166226913"/><title>No Ficción → Negocios: 195</title></g><g style="mix-blend-mode: multiply;"><path d="M5,171.75228333671606C187.5,171.75228333671606,187.5,126.752283336716,370,126.752283336716" stroke="#cdbedb" stroke-width="58.50456667343211"/><title>Ficción → Ficción Histórica: 5338</title></g><g style="mix-blend-mode: multiply;"><path d="M5,359.49736147757255C187.5,359.49736147757255,187.5,454.47503551857113,370,454.47503551857113" stroke="#cdbedb" stroke-width="2.016642987619241"/><title>Ficción → Ciencia Ficción: 184</title></g><g style="mix-blend-mode: multiply;"><path d="M5,292.14806170083216C187.5,292.14806170083216,187.5,262.1480617008321,370,262.1480617008321" stroke="#cdbedb" stroke-width="28.868682768418918"/><title>Ficción → Romance: 2634</title></g><g style="mix-blend-mode: multiply;"><path d="M5,345.9453014004465C187.5,345.9453014004465,187.5,369.6934239902577,370,369.6934239902577" stroke="#cdbedb" stroke-width="5.556728232189974"/><title>Ficción → Ficción: 507</title></g><g style="mix-blend-mode: multiply;"><path d="M5,350.7129084635681C187.5,350.7129084635681,187.5,399.807286381165,370,399.807286381165" stroke="#cdbedb" stroke-width="3.9784858940531764"/><title>Ficción → Clásico: 363</title></g><g style="mix-blend-mode: multiply;"><path d="M5,354.45027400040595C187.5,354.45027400040595,187.5,408.54465191800284,370,408.54465191800284" stroke="#cdbedb" stroke-width="3.4962451796224885"/><title>Ficción → Sátira: 319</title></g><g style="mix-blend-mode: multiply;"><path d="M5,320.6276638928354C187.5,320.6276638928354,187.5,295.62766389283536,370,295.62766389283536" stroke="#cdbedb" stroke-width="28.09052161558758"/><title>Ficción → Fantasía: 2563</title></g><g style="mix-blend-mode: multiply;"><path d="M5,261.44905622082405C187.5,261.44905622082405,187.5,226.449056220824,370,226.449056220824" stroke="#cdbedb" stroke-width="32.52932819159732"/><title>Ficción → Misterio: 2968</title></g><g style="mix-blend-mode: multiply;"><path d="M5,223.09447939922876C187.5,223.09447939922876,187.5,183.0944793992287,370,183.0944793992287" stroke="#cdbedb" stroke-width="44.17982545159327"/><title>Ficción → Ficción Contemporánea: 4031</title></g><g style="mix-blend-mode: multiply;"><path d="M5,392.00152222447736C187.5,392.00152222447736,187.5,344.1521209661051,370,344.1521209661051" stroke="#b8e0d2" stroke-width="8.537852648670592"/><title>No Ficción → Autoayuda: 779</title></g><g style="mix-blend-mode: multiply;"><path d="M5,338.9199309924904C187.5,338.9199309924904,187.5,357.6680535823016,370,357.6680535823016" stroke="#cdbedb" stroke-width="8.494012583722347"/><title>Ficción → Juvenil: 775</title></g><g style="mix-blend-mode: multiply;"><path d="M5,411.52131114268315C187.5,411.52131114268315,187.5,425.197381773899,370,425.197381773899" stroke="#b8e0d2" stroke-width="3.0359244976659228"/><title>No Ficción → Ciencia: 277</title></g><g style="mix-blend-mode: multiply;"><path d="M5,361.5140044651918C187.5,361.5140044651918,187.5,461.4916785061904,370,461.4916785061904" stroke="#cdbedb" stroke-width="2.016642987619241"/><title>Ficción → Cuento: 184</title></g><g style="mix-blend-mode: multiply;"><path d="M5,414.20103511264455C187.5,414.20103511264455,187.5,432.8771057438604,370,432.8771057438604" stroke="#b8e0d2" stroke-width="2.3235234422569517"/><title>No Ficción → Crónica: 212</title></g><g style="mix-blend-mode: multiply;"><path d="M5,404.07398010960014C187.5,404.07398010960014,187.5,390.27531966714025,370,390.27531966714025" stroke="#b8e0d2" stroke-width="5.085447533996347"/><title>No Ficción → Psicología: 464</title></g><g style="mix-blend-mode: multiply;"><path d="M5,357.34371828699005C187.5,357.34371828699005,187.5,440.18418916176176,370,440.18418916176176" stroke="#cdbedb" stroke-width="2.290643393545768"/><title>Ficción → Terror: 209</title></g><g style="mix-blend-mode: multiply;"><path d="M5,408.31002638522426C187.5,408.31002638522426,187.5,416.98609701644006,370,416.98609701644006" stroke="#b8e0d2" stroke-width="3.3866450172518774"/><title>No Ficción → Sociología: 309</title></g><g style="mix-blend-mode: multiply;"><path d="M5,398.90085244570736C187.5,398.90085244570736,187.5,380.1021920032474,370,380.1021920032474" stroke="#b8e0d2" stroke-width="5.260807793789325"/><title>No Ficción → No Ficción: 480</title></g><g style="mix-blend-mode: multiply;"><path d="M375,331.2006291861173C557.5,331.2006291861173,557.5,393.1152831337527,740,393.1152831337527" stroke="#95d5b2" stroke-width="3.1564846762735947"/><title>Biografía → Aventura y Supervivencia: 288</title></g><g style="mix-blend-mode: multiply;"><path d="M375,447.39811244164804C557.5,447.39811244164804,557.5,492.710574386036,740,492.710574386036" stroke="#cccccc" stroke-width="2.137203166226913"/><title>Negocios → Emprendimiento: 195</title></g><g style="mix-blend-mode: multiply;"><path d="M375,152.34940125837215C557.5,152.34940125837215,557.5,441.45687030647446,740,441.45687030647446" stroke="#cdaadb" stroke-width="2.9263243352953117"/><title>Ficción Histórica → Existencialismo: 267</title></g><g style="mix-blend-mode: multiply;"><path d="M375,454.47503551857113C557.5,454.47503551857113,557.5,513.9961436979905,740,513.9961436979905" stroke="#cccccc" stroke-width="2.016642987619241"/><title>Ciencia Ficción → Distopía: 184</title></g><g style="mix-blend-mode: multiply;"><path d="M375,275.3548812664907C557.5,275.3548812664907,557.5,449.1475542926729,740,449.1475542926729" stroke="#cccccc" stroke-width="2.4550436371016846"/><title>Romance → Suspenso Romántico: 224</title></g><g style="mix-blend-mode: multiply;"><path d="M375,371.359346458291C557.5,371.359346458291,557.5,471.1455246600364,740,471.1455246600364" stroke="#cccccc" stroke-width="2.224883296123402"/><title>Ficción → Fábula Espiritual: 203</title></g><g style="mix-blend-mode: multiply;"><path d="M375,139.7070225289222C557.5,139.7070225289222,557.5,239.88918205804757,740,239.88918205804757" stroke="#cdaadb" stroke-width="4.82240714430688"/><title>Ficción Histórica → Finanzas y Poder: 440</title></g><g style="mix-blend-mode: multiply;"><path d="M375,401.33620864623504C557.5,401.33620864623504,557.5,554.5396793180432,740,554.5396793180432" stroke="#cccccc" stroke-width="1"/><title>Clásico → Romance Psicológico: 84</title></g><g style="mix-blend-mode: multiply;"><path d="M375,408.54465191800284C557.5,408.54465191800284,557.5,359.73858331641975,740,359.73858331641975" stroke="#cccccc" stroke-width="3.4962451796224885"/><title>Sátira → Thriller Contemporáneo: 319</title></g><g style="mix-blend-mode: multiply;"><path d="M375,305.40947838441235C557.5,305.40947838441235,557.5,316.28739598132734,740,316.28739598132734" stroke="#cccccc" stroke-width="2.2139232798863406"/><title>Fantasía → Realismo Mágico: 202</title></g><g style="mix-blend-mode: multiply;"><path d="M375,215.6698802516744C557.5,215.6698802516744,557.5,60.47858737568511,740,60.47858737568511" stroke="#cccccc" stroke-width="10.970976253298154"/><title>Misterio → Thriller Psicológico: 1001</title></g><g style="mix-blend-mode: multiply;"><path d="M375,204.08839050131922C557.5,204.08839050131922,557.5,478.3539679318042,740,478.3539679318042" stroke="#cccccc" stroke-width="2.1920032474122184"/><title>Ficción Contemporánea → Culinaria Japonesiva: 200</title></g><g style="mix-blend-mode: multiply;"><path d="M375,294.08778161152827C557.5,294.08778161152827,557.5,126.70468845139037,740,126.70468845139037" stroke="#cccccc" stroke-width="7.452811041201543"/><title>Fantasía → Viajes en el tiempo: 680</title></g><g style="mix-blend-mode: multiply;"><path d="M375,164.34189161761716C557.5,164.34189161761716,557.5,24.29510858534619,740,24.29510858534619" stroke="#cccccc" stroke-width="6.6746498883702055"/><title>Ficción Contemporánea → Drama Romántico: 609</title></g><g style="mix-blend-mode: multiply;"><path d="M375,345.0892023543738C557.5,345.0892023543738,557.5,433.50314593058647,740,433.50314593058647" stroke="#cccccc" stroke-width="2.981124416480617"/><title>Autoayuda → Desarrollo Profesional: 272</title></g><g style="mix-blend-mode: multiply;"><path d="M375,399.34696569920845C557.5,399.34696569920845,557.5,417.4477369596102,740,417.4477369596102" stroke="#cccccc" stroke-width="3.057844530140045"/><title>Clásico → Romance de época: 279</title></g><g style="mix-blend-mode: multiply;"><path d="M375,361.1752587781611C557.5,361.1752587781611,557.5,548.339557540085,740,548.339557540085" stroke="#cccccc" stroke-width="1.4796021920032474"/><title>Juvenil → Drama Social: 135</title></g><g style="mix-blend-mode: multiply;"><path d="M375,425.197381773899C557.5,425.197381773899,557.5,425.49462147351323,740,425.49462147351323" stroke="#cccccc" stroke-width="3.0359244976659228"/><title>Ciencia → Neurociencia: 277</title></g><g style="mix-blend-mode: multiply;"><path d="M375,341.7409173939517C557.5,341.7409173939517,557.5,351.1327379744266,740,351.1327379744266" stroke="#cccccc" stroke-width="3.7154455043637102"/><title>Autoayuda → Productividad: 339</title></g><g style="mix-blend-mode: multiply;"><path d="M375,461.4916785061904C557.5,461.4916785061904,557.5,521.0127866856097,740,521.0127866856097" stroke="#cccccc" stroke-width="2.016642987619241"/><title>Cuento → Ficción Argentina: 184</title></g><g style="mix-blend-mode: multiply;"><path d="M375,121.16267505581484C557.5,121.16267505581484,557.5,139.10269941140658,740,139.10269941140658" stroke="#cdaadb" stroke-width="7.343210878830932"/><title>Ficción Histórica → Saga Familiar: 670</title></g><g style="mix-blend-mode: multiply;"><path d="M375,255.8679723969961C557.5,255.8679723969961,557.5,103.50882890196884,740,103.50882890196884" stroke="#cccccc" stroke-width="3.682565455652527"/><title>Romance → Romance Histórico: 336</title></g><g style="mix-blend-mode: multiply;"><path d="M375,181.269636695758C557.5,181.269636695758,557.5,87.28577227521829,740,87.28577227521829" stroke="#cccccc" stroke-width="5.085447533996347"/><title>Ficción Contemporánea → Drama Psicológico: 464</title></g><g style="mix-blend-mode: multiply;"><path d="M375,432.8771057438604C557.5,432.8771057438604,557.5,221.1430891008728,740,221.1430891008728" stroke="#cccccc" stroke-width="2.3235234422569517"/><title>Crónica → Ensayos: 212</title></g><g style="mix-blend-mode: multiply;"><path d="M375,190.8760909275421C557.5,190.8760909275421,557.5,259.36411609498685,740,259.36411609498685" stroke="#cccccc" stroke-width="4.61416683580272"/><title>Ficción Contemporánea → Literatura Chilena: 421</title></g><g style="mix-blend-mode: multiply;"><path d="M375,154.90856504972592C557.5,154.90856504972592,557.5,485.54597117921645,740,485.54597117921645" stroke="#cdaadb" stroke-width="2.1920032474122184"/><title>Ficción Histórica → Dictadura Argentina: 200</title></g><g style="mix-blend-mode: multiply;"><path d="M375,238.7242744063324C557.5,238.7242744063324,557.5,342.3898924294702,740,342.3898924294702" stroke="#cccccc" stroke-width="3.770245585549016"/><title>Misterio → Crítica Social / Redes: 344</title></g><g style="mix-blend-mode: multiply;"><path d="M375,235.87467018469653C557.5,235.87467018469653,557.5,314.2159529125228,740,314.2159529125228" stroke="#cccccc" stroke-width="1.9289628577227522"/><title>Misterio → Realismo Mágico: 176</title></g><g style="mix-blend-mode: multiply;"><path d="M375,318.0924497665922C557.5,318.0924497665922,557.5,163.2082403085042,740,163.2082403085042" stroke="#95d5b2" stroke-width="6.839050131926122"/><title>Biografía → Finanzas / Crimen: 624</title></g><g style="mix-blend-mode: multiply;"><path d="M375,347.50040592652726C557.5,347.50040592652726,557.5,534.8707124010552,740,534.8707124010552" stroke="#cccccc" stroke-width="1.8412827278262636"/><title>Autoayuda → Espiritualidad: 168</title></g><g style="mix-blend-mode: multiply;"><path d="M375,327.60574386036126C557.5,327.60574386036126,557.5,333.4881266490765,740,333.4881266490765" stroke="#95d5b2" stroke-width="4.033285975238482"/><title>Biografía → Memorias / Relaciones: 368</title></g><g style="mix-blend-mode: multiply;"><path d="M375,261.2164603206819C557.5,261.2164603206819,557.5,151.2815100466816,740,151.2815100466816" stroke="#cccccc" stroke-width="7.0144103917191"/><title>Romance → Chick-Lit: 640</title></g><g style="mix-blend-mode: multiply;"><path d="M375,389.37111832758274C557.5,389.37111832758274,557.5,218.34280495230368,740,218.34280495230368" stroke="#cccccc" stroke-width="3.2770448548812667"/><title>Psicología → Ensayos: 299</title></g><g style="mix-blend-mode: multiply;"><path d="M375,368.580982342196C557.5,368.580982342196,557.5,376.5392733915161,740,376.5392733915161" stroke="#cccccc" stroke-width="3.331844936066572"/><title>Ficción → Novela Filosófica: 304</title></g><g style="mix-blend-mode: multiply;"><path d="M375,323.55053785264863C557.5,323.55053785264863,557.5,324.43292064136386,740,324.43292064136386" stroke="#95d5b2" stroke-width="4.077126040186727"/><title>Biografía → True Crime: 372</title></g><g style="mix-blend-mode: multiply;"><path d="M375,272.012076314187C557.5,272.012076314187,557.5,287.7188958798457,740,287.7188958798457" stroke="#cccccc" stroke-width="4.230566267505582"/><title>Romance → Drama Contemporáneo: 386</title></g><g style="mix-blend-mode: multiply;"><path d="M375,267.31022934848784C557.5,267.31022934848784,557.5,229.8914146539477,740,229.8914146539477" stroke="#cccccc" stroke-width="5.173127663892836"/><title>Romance → Drama Emocional: 472</title></g><g style="mix-blend-mode: multiply;"><path d="M375,115.47442662878012C557.5,115.47442662878012,557.5,99.65090318652332,740,99.65090318652332" stroke="#cdaadb" stroke-width="4.033285975238482"/><title>Ficción Histórica → Romance Histórico: 368</title></g><g style="mix-blend-mode: multiply;"><path d="M375,308.09468236249234C557.5,308.09468236249234,557.5,401.2717678100263,740,401.2717678100263" stroke="#cccccc" stroke-width="3.1564846762735947"/><title>Fantasía → Fantasía Contemporánea: 288</title></g><g style="mix-blend-mode: multiply;"><path d="M375,440.18418916176176C557.5,440.18418916176176,557.5,463.88776131520183,740,463.88776131520183" stroke="#cccccc" stroke-width="2.290643393545768"/><title>Terror → Distopía / Horror: 209</title></g><g style="mix-blend-mode: multiply;"><path d="M375,231.84686421757658C557.5,231.84686421757658,557.5,197.67870915364327,740,197.67870915364327" stroke="#cccccc" stroke-width="6.12664907651715"/><title>Misterio → Dark Academia: 559</title></g><g style="mix-blend-mode: multiply;"><path d="M375,285.97188958798455C557.5,285.97188958798455,557.5,75.35356200527717,740,75.35356200527717" stroke="#cccccc" stroke-width="8.778973005885936"/><title>Fantasía → Mitología Retold: 801</title></g><g style="mix-blend-mode: multiply;"><path d="M375,416.98609701644006C557.5,416.98609701644006,557.5,368.1800284148569,740,368.1800284148569" stroke="#cccccc" stroke-width="3.3866450172518774"/><title>Sociología → Psicología del Éxito: 309</title></g><g style="mix-blend-mode: multiply;"><path d="M375,379.137710574386C557.5,379.137710574386,557.5,384.8711183275826,740,384.8711183275826" stroke="#cccccc" stroke-width="3.331844936066572"/><title>No Ficción → Ensayos / Relaciones: 304</title></g><g style="mix-blend-mode: multiply;"><path d="M375,195.3696975847371C557.5,195.3696975847371,557.5,278.4170895067993,740,278.4170895067993" stroke="#cccccc" stroke-width="4.3730464785873755"/><title>Ficción Contemporánea → Cultura del Videojuego: 399</title></g><g style="mix-blend-mode: multiply;"><path d="M375,250.87020499289625C557.5,250.87020499289625,557.5,30.788918205804887,740,30.788918205804887" stroke="#cccccc" stroke-width="6.3129693525471895"/><title>Romance → Drama Romántico: 576</title></g><g style="mix-blend-mode: multiply;"><path d="M375,391.91384209458084C557.5,391.91384209458084,557.5,541.6955551045259,740,541.6955551045259" stroke="#cccccc" stroke-width="1.8084026791150802"/><title>Psicología → Memorias / Holocausto: 165</title></g><g style="mix-blend-mode: multiply;"><path d="M375,199.09062309721938C557.5,199.09062309721938,557.5,409.3844124213516,740,409.3844124213516" stroke="#cccccc" stroke-width="3.068804546377106"/><title>Ficción Contemporánea → Literatura Brasileña: 280</title></g><g style="mix-blend-mode: multiply;"><path d="M375,128.08392530951892C557.5,128.08392530951892,557.5,174.8774101887559,740,174.8774101887559" stroke="#cdaadb" stroke-width="6.499289628577228"/><title>Ficción Histórica → Segunda Guerra Mundial: 593</title></g><g style="mix-blend-mode: multiply;"><path d="M375,105.47889182058042C557.5,105.47889182058042,557.5,7.978891820580589,740,7.978891820580589" stroke="#cdaadb" stroke-width="15.957783641160951"/><title>Ficción Histórica → Antigua Roma: 1456</title></g><g style="mix-blend-mode: multiply;"><path d="M375,241.66155875786478C557.5,241.66155875786478,557.5,499.83133752790735,740,499.83133752790735" stroke="#cccccc" stroke-width="2.1043231175157295"/><title>Misterio → Novela Policial: 192</title></g><g style="mix-blend-mode: multiply;"><path d="M375,301.0583519382991C557.5,301.0583519382991,557.5,186.3712198092146,740,186.3712198092146" stroke="#cccccc" stroke-width="6.488329612340166"/><title>Fantasía → Realismo Mágico / Drama: 592</title></g><g style="mix-blend-mode: multiply;"><path d="M375,381.7681144712807C557.5,381.7681144712807,557.5,527.9855896082807,740,527.9855896082807" stroke="#cccccc" stroke-width="1.9289628577227522"/><title>No Ficción → Feminismo: 176</title></g><g style="mix-blend-mode: multiply;"><path d="M375,186.19068398619845C557.5,186.19068398619845,557.5,249.67870915364324,740,249.67870915364324" stroke="#cccccc" stroke-width="4.756647046884514"/><title>Ficción Contemporánea → Drama de Hollywood: 434</title></g><g style="mix-blend-mode: multiply;"><path d="M375,144.39790947838435C557.5,144.39790947838435,557.5,268.95088289019685,740,268.95088289019685" stroke="#cdaadb" stroke-width="4.559366754617415"/><title>Ficción Histórica → Thriller Histórico: 416</title></g><g style="mix-blend-mode: multiply;"><path d="M375,333.8310330830119C557.5,333.8310330830119,557.5,506.93566064542307,740,506.93566064542307" stroke="#95d5b2" stroke-width="2.1043231175157295"/><title>Biografía → Memorias: 192</title></g><g style="mix-blend-mode: multiply;"><path d="M375,173.20306474528104C557.5,173.20306474528104,557.5,44.46925106555727,740,44.46925106555727" stroke="#cccccc" stroke-width="11.047696366957581"/><title>Ficción Contemporánea → Tragedia / Drama: 1008</title></g><g style="mix-blend-mode: multiply;"><path d="M375,148.78191597320875C557.5,148.78191597320875,557.5,296.93850213111426,740,296.93850213111426" stroke="#cdaadb" stroke-width="4.208646235031459"/><title>Ficción Histórica → Drama Familiar: 384</title></g><g style="mix-blend-mode: multiply;"><path d="M375,224.96945402882073C557.5,224.96945402882073,557.5,114.16419728029236,740,114.16419728029236" stroke="#cccccc" stroke-width="7.62817130099452"/><title>Misterio → Thriller Policial: 696</title></g><g style="mix-blend-mode: multiply;"><path d="M375,242.71372031662264C557.5,242.71372031662264,557.5,559.9999999999998,740,559.9999999999998" stroke="#cccccc" stroke-width="1"/><title>Misterio → Novela Negra Argentina: null</title></g><g style="mix-blend-mode: multiply;"><path d="M375,358.3311345646438C557.5,358.3311345646438,557.5,306.1471483661457,740,306.1471483661457" stroke="#cccccc" stroke-width="4.208646235031459"/><title>Juvenil → Ciencia Ficción Soft: 384</title></g><g style="mix-blend-mode: multiply;"><path d="M375,201.8087071240105C557.5,201.8087071240105,557.5,456.55875786482636,740,456.55875786482636" stroke="#cccccc" stroke-width="2.367363507205196"/><title>Ficción Contemporánea → Novela Coral: 216</title></g><g style="mix-blend-mode: multiply;"><path d="M375,354.8239293687842C557.5,354.8239293687842,557.5,91.23137812056028,740,91.23137812056028" stroke="#cccccc" stroke-width="2.8057641566876397"/><title>Juvenil → Drama Psicológico: 256</title></g><g style="mix-blend-mode: multiply;"><path d="M375,134.31469454028814C557.5,134.31469454028814,557.5,208.72315810838245,740,208.72315810838245" stroke="#cdaadb" stroke-width="5.962248832961234"/><title>Ficción Histórica → Thriller de Guerra: 544</title></g></g><g><text x="9" y="252.5111629795007" text-anchor="start"><tspan alignment-baseline="middle" x="9" style="font-family: Arial, sans-serif; font-size: 10px; fill: black; font-weight: bold;">Ficción</tspan></text><text x="379" y="126.752283336716" text-anchor="start"><tspan alignment-baseline="middle" x="379" style="font-family: Arial, sans-serif; font-size: 10px; fill: black; font-weight: bold;">Ficción Histórica</tspan></text><text x="9" y="392.5111629795007" text-anchor="start"><tspan alignment-baseline="middle" x="9" style="font-family: Arial, sans-serif; font-size: 10px; fill: black; font-weight: bold;">No Ficción</tspan></text><text x="379" y="183.0944793992287" text-anchor="start"><tspan alignment-baseline="middle" x="379" style="font-family: Arial, sans-serif; font-size: 10px; fill: black; font-weight: bold;">Ficción Contemporánea</tspan></text><text x="379" y="226.449056220824" text-anchor="start"><tspan alignment-baseline="middle" x="379" style="font-family: Arial, sans-serif; font-size: 10px; fill: black; font-weight: bold;">Misterio</tspan></text><text x="379" y="262.1480617008321" text-anchor="start"><tspan alignment-baseline="middle" x="379" style="font-family: Arial, sans-serif; font-size: 10px; fill: black; font-weight: bold;">Romance</tspan></text><text x="379" y="295.62766389283536" text-anchor="start"><tspan alignment-baseline="middle" x="379" style="font-family: Arial, sans-serif; font-size: 10px; fill: black; font-weight: bold;">Fantasía</tspan></text><text x="379" y="324.77805967119946" text-anchor="start"><tspan alignment-baseline="middle" x="379" style="font-family: Arial, sans-serif; font-size: 10px; fill: black; font-weight: bold;">Biografía</tspan></text><text x="736" y="7.9788918205806" text-anchor="end"><tspan alignment-baseline="middle" x="736" style="font-family: Arial, sans-serif; font-size: 10px; fill: black; font-weight: bold;">Antigua Roma</tspan></text><text x="736" y="27.451593261619784" text-anchor="end"><tspan alignment-baseline="middle" x="736" style="font-family: Arial, sans-serif; font-size: 10px; fill: black; font-weight: bold;">Drama Romántico</tspan></text><text x="736" y="44.46925106555726" text-anchor="end"><tspan alignment-baseline="middle" x="736" style="font-family: Arial, sans-serif; font-size: 10px; fill: black; font-weight: bold;">Tragedia / Drama</tspan></text><text x="736" y="60.478587375685116" text-anchor="end"><tspan alignment-baseline="middle" x="736" style="font-family: Arial, sans-serif; font-size: 10px; fill: black; font-weight: bold;">Thriller Psicológico</tspan></text><text x="736" y="75.35356200527715" text-anchor="end"><tspan alignment-baseline="middle" x="736" style="font-family: Arial, sans-serif; font-size: 10px; fill: black; font-weight: bold;">Mitología Retold</tspan></text><text x="379" y="344.15212096610514" text-anchor="start"><tspan alignment-baseline="middle" x="379" style="font-family: Arial, sans-serif; font-size: 10px; fill: black; font-weight: bold;">Autoayuda</tspan></text><text x="379" y="357.6680535823016" text-anchor="start"><tspan alignment-baseline="middle" x="379" style="font-family: Arial, sans-serif; font-size: 10px; fill: black; font-weight: bold;">Juvenil</tspan></text><text x="736" y="88.6886543535621" text-anchor="end"><tspan alignment-baseline="middle" x="736" style="font-family: Arial, sans-serif; font-size: 10px; fill: black; font-weight: bold;">Drama Psicológico</tspan></text><text x="736" y="101.49218591434959" text-anchor="end"><tspan alignment-baseline="middle" x="736" style="font-family: Arial, sans-serif; font-size: 10px; fill: black; font-weight: bold;">Romance Histórico</tspan></text><text x="736" y="114.16419728029234" text-anchor="end"><tspan alignment-baseline="middle" x="736" style="font-family: Arial, sans-serif; font-size: 10px; fill: black; font-weight: bold;">Thriller Policial</tspan></text><text x="736" y="126.70468845139035" text-anchor="end"><tspan alignment-baseline="middle" x="736" style="font-family: Arial, sans-serif; font-size: 10px; fill: black; font-weight: bold;">Viajes en el tiempo</tspan></text><text x="736" y="139.1026994114066" text-anchor="end"><tspan alignment-baseline="middle" x="736" style="font-family: Arial, sans-serif; font-size: 10px; fill: black; font-weight: bold;">Saga Familiar</tspan></text><text x="736" y="151.2815100466816" text-anchor="end"><tspan alignment-baseline="middle" x="736" style="font-family: Arial, sans-serif; font-size: 10px; fill: black; font-weight: bold;">Chick-Lit</tspan></text><text x="736" y="163.20824030850423" text-anchor="end"><tspan alignment-baseline="middle" x="736" style="font-family: Arial, sans-serif; font-size: 10px; fill: black; font-weight: bold;">Finanzas / Crimen</tspan></text><text x="736" y="174.8774101887559" text-anchor="end"><tspan alignment-baseline="middle" x="736" style="font-family: Arial, sans-serif; font-size: 10px; fill: black; font-weight: bold;">Segunda Guerra Mundial</tspan></text><text x="736" y="186.3712198092146" text-anchor="end"><tspan alignment-baseline="middle" x="736" style="font-family: Arial, sans-serif; font-size: 10px; fill: black; font-weight: bold;">Realismo Mágico / Drama</tspan></text><text x="736" y="197.67870915364327" text-anchor="end"><tspan alignment-baseline="middle" x="736" style="font-family: Arial, sans-serif; font-size: 10px; fill: black; font-weight: bold;">Dark Academia</tspan></text><text x="736" y="208.72315810838245" text-anchor="end"><tspan alignment-baseline="middle" x="736" style="font-family: Arial, sans-serif; font-size: 10px; fill: black; font-weight: bold;">Thriller de Guerra</tspan></text><text x="736" y="219.50456667343218" text-anchor="end"><tspan alignment-baseline="middle" x="736" style="font-family: Arial, sans-serif; font-size: 10px; fill: black; font-weight: bold;">Ensayos</tspan></text><text x="379" y="369.69342399025777" text-anchor="start"><tspan alignment-baseline="middle" x="379" style="font-family: Arial, sans-serif; font-size: 10px; fill: black; font-weight: bold;">Ficción</tspan></text><text x="379" y="380.1021920032474" text-anchor="start"><tspan alignment-baseline="middle" x="379" style="font-family: Arial, sans-serif; font-size: 10px; fill: black; font-weight: bold;">No Ficción</tspan></text><text x="736" y="229.8914146539477" text-anchor="end"><tspan alignment-baseline="middle" x="736" style="font-family: Arial, sans-serif; font-size: 10px; fill: black; font-weight: bold;">Drama Emocional</tspan></text><text x="379" y="390.27531966714025" text-anchor="start"><tspan alignment-baseline="middle" x="379" style="font-family: Arial, sans-serif; font-size: 10px; fill: black; font-weight: bold;">Psicología</tspan></text><text x="736" y="239.88918205804754" text-anchor="end"><tspan alignment-baseline="middle" x="736" style="font-family: Arial, sans-serif; font-size: 10px; fill: black; font-weight: bold;">Finanzas y Poder</tspan></text><text x="736" y="249.67870915364324" text-anchor="end"><tspan alignment-baseline="middle" x="736" style="font-family: Arial, sans-serif; font-size: 10px; fill: black; font-weight: bold;">Drama de Hollywood</tspan></text><text x="736" y="259.3641160949868" text-anchor="end"><tspan alignment-baseline="middle" x="736" style="font-family: Arial, sans-serif; font-size: 10px; fill: black; font-weight: bold;">Literatura Chilena</tspan></text><text x="736" y="268.9508828901969" text-anchor="end"><tspan alignment-baseline="middle" x="736" style="font-family: Arial, sans-serif; font-size: 10px; fill: black; font-weight: bold;">Thriller Histórico</tspan></text><text x="736" y="278.41708950679924" text-anchor="end"><tspan alignment-baseline="middle" x="736" style="font-family: Arial, sans-serif; font-size: 10px; fill: black; font-weight: bold;">Cultura del Videojuego</tspan></text><text x="736" y="287.7188958798457" text-anchor="end"><tspan alignment-baseline="middle" x="736" style="font-family: Arial, sans-serif; font-size: 10px; fill: black; font-weight: bold;">Drama Contemporáneo</tspan></text><text x="736" y="296.93850213111426" text-anchor="end"><tspan alignment-baseline="middle" x="736" style="font-family: Arial, sans-serif; font-size: 10px; fill: black; font-weight: bold;">Drama Familiar</tspan></text><text x="736" y="306.1471483661457" text-anchor="end"><tspan alignment-baseline="middle" x="736" style="font-family: Arial, sans-serif; font-size: 10px; fill: black; font-weight: bold;">Ciencia Ficción Soft</tspan></text><text x="736" y="315.32291455246593" text-anchor="end"><tspan alignment-baseline="middle" x="736" style="font-family: Arial, sans-serif; font-size: 10px; fill: black; font-weight: bold;">Realismo Mágico</tspan></text><text x="736" y="324.43292064136386" text-anchor="end"><tspan alignment-baseline="middle" x="736" style="font-family: Arial, sans-serif; font-size: 10px; fill: black; font-weight: bold;">True Crime</tspan></text><text x="736" y="333.48812664907643" text-anchor="end"><tspan alignment-baseline="middle" x="736" style="font-family: Arial, sans-serif; font-size: 10px; fill: black; font-weight: bold;">Memorias / Relaciones</tspan></text><text x="379" y="399.807286381165" text-anchor="start"><tspan alignment-baseline="middle" x="379" style="font-family: Arial, sans-serif; font-size: 10px; fill: black; font-weight: bold;">Clásico</tspan></text><text x="736" y="342.38989242947025" text-anchor="end"><tspan alignment-baseline="middle" x="736" style="font-family: Arial, sans-serif; font-size: 10px; fill: black; font-weight: bold;">Crítica Social / Redes</tspan></text><text x="736" y="351.1327379744266" text-anchor="end"><tspan alignment-baseline="middle" x="736" style="font-family: Arial, sans-serif; font-size: 10px; fill: black; font-weight: bold;">Productividad</tspan></text><text x="379" y="408.54465191800284" text-anchor="start"><tspan alignment-baseline="middle" x="379" style="font-family: Arial, sans-serif; font-size: 10px; fill: black; font-weight: bold;">Sátira</tspan></text><text x="736" y="359.73858331641975" text-anchor="end"><tspan alignment-baseline="middle" x="736" style="font-family: Arial, sans-serif; font-size: 10px; fill: black; font-weight: bold;">Thriller Contemporáneo</tspan></text><text x="379" y="416.98609701644006" text-anchor="start"><tspan alignment-baseline="middle" x="379" style="font-family: Arial, sans-serif; font-size: 10px; fill: black; font-weight: bold;">Sociología</tspan></text><text x="736" y="368.1800284148569" text-anchor="end"><tspan alignment-baseline="middle" x="736" style="font-family: Arial, sans-serif; font-size: 10px; fill: black; font-weight: bold;">Psicología del Éxito</tspan></text><text x="736" y="376.5392733915161" text-anchor="end"><tspan alignment-baseline="middle" x="736" style="font-family: Arial, sans-serif; font-size: 10px; fill: black; font-weight: bold;">Novela Filosófica</tspan></text><text x="736" y="384.8711183275826" text-anchor="end"><tspan alignment-baseline="middle" x="736" style="font-family: Arial, sans-serif; font-size: 10px; fill: black; font-weight: bold;">Ensayos / Relaciones</tspan></text><text x="736" y="393.11528313375265" text-anchor="end"><tspan alignment-baseline="middle" x="736" style="font-family: Arial, sans-serif; font-size: 10px; fill: black; font-weight: bold;">Aventura y Supervivencia</tspan></text><text x="736" y="401.2717678100263" text-anchor="end"><tspan alignment-baseline="middle" x="736" style="font-family: Arial, sans-serif; font-size: 10px; fill: black; font-weight: bold;">Fantasía Contemporánea</tspan></text><text x="736" y="409.3844124213516" text-anchor="end"><tspan alignment-baseline="middle" x="736" style="font-family: Arial, sans-serif; font-size: 10px; fill: black; font-weight: bold;">Literatura Brasileña</tspan></text><text x="736" y="417.4477369596102" text-anchor="end"><tspan alignment-baseline="middle" x="736" style="font-family: Arial, sans-serif; font-size: 10px; fill: black; font-weight: bold;">Romance de época</tspan></text><text x="379" y="425.197381773899" text-anchor="start"><tspan alignment-baseline="middle" x="379" style="font-family: Arial, sans-serif; font-size: 10px; fill: black; font-weight: bold;">Ciencia</tspan></text><text x="736" y="425.49462147351323" text-anchor="end"><tspan alignment-baseline="middle" x="736" style="font-family: Arial, sans-serif; font-size: 10px; fill: black; font-weight: bold;">Neurociencia</tspan></text><text x="736" y="433.50314593058647" text-anchor="end"><tspan alignment-baseline="middle" x="736" style="font-family: Arial, sans-serif; font-size: 10px; fill: black; font-weight: bold;">Desarrollo Profesional</tspan></text><text x="736" y="441.45687030647446" text-anchor="end"><tspan alignment-baseline="middle" x="736" style="font-family: Arial, sans-serif; font-size: 10px; fill: black; font-weight: bold;">Existencialismo</tspan></text><text x="736" y="449.1475542926729" text-anchor="end"><tspan alignment-baseline="middle" x="736" style="font-family: Arial, sans-serif; font-size: 10px; fill: black; font-weight: bold;">Suspenso Romántico</tspan></text><text x="736" y="456.55875786482636" text-anchor="end"><tspan alignment-baseline="middle" x="736" style="font-family: Arial, sans-serif; font-size: 10px; fill: black; font-weight: bold;">Novela Coral</tspan></text><text x="379" y="432.8771057438604" text-anchor="start"><tspan alignment-baseline="middle" x="379" style="font-family: Arial, sans-serif; font-size: 10px; fill: black; font-weight: bold;">Crónica</tspan></text><text x="379" y="440.18418916176176" text-anchor="start"><tspan alignment-baseline="middle" x="379" style="font-family: Arial, sans-serif; font-size: 10px; fill: black; font-weight: bold;">Terror</tspan></text><text x="736" y="463.88776131520183" text-anchor="end"><tspan alignment-baseline="middle" x="736" style="font-family: Arial, sans-serif; font-size: 10px; fill: black; font-weight: bold;">Distopía / Horror</tspan></text><text x="736" y="471.1455246600364" text-anchor="end"><tspan alignment-baseline="middle" x="736" style="font-family: Arial, sans-serif; font-size: 10px; fill: black; font-weight: bold;">Fábula Espiritual</tspan></text><text x="736" y="478.3539679318042" text-anchor="end"><tspan alignment-baseline="middle" x="736" style="font-family: Arial, sans-serif; font-size: 10px; fill: black; font-weight: bold;">Culinaria Japonesiva</tspan></text><text x="736" y="485.54597117921645" text-anchor="end"><tspan alignment-baseline="middle" x="736" style="font-family: Arial, sans-serif; font-size: 10px; fill: black; font-weight: bold;">Dictadura Argentina</tspan></text><text x="379" y="447.3981124416481" text-anchor="start"><tspan alignment-baseline="middle" x="379" style="font-family: Arial, sans-serif; font-size: 10px; fill: black; font-weight: bold;">Negocios</tspan></text><text x="736" y="492.710574386036" text-anchor="end"><tspan alignment-baseline="middle" x="736" style="font-family: Arial, sans-serif; font-size: 10px; fill: black; font-weight: bold;">Emprendimiento</tspan></text><text x="736" y="499.83133752790735" text-anchor="end"><tspan alignment-baseline="middle" x="736" style="font-family: Arial, sans-serif; font-size: 10px; fill: black; font-weight: bold;">Novela Policial</tspan></text><text x="736" y="506.93566064542307" text-anchor="end"><tspan alignment-baseline="middle" x="736" style="font-family: Arial, sans-serif; font-size: 10px; fill: black; font-weight: bold;">Memorias</tspan></text><text x="379" y="454.4750355185712" text-anchor="start"><tspan alignment-baseline="middle" x="379" style="font-family: Arial, sans-serif; font-size: 10px; fill: black; font-weight: bold;">Ciencia Ficción</tspan></text><text x="379" y="461.49167850619045" text-anchor="start"><tspan alignment-baseline="middle" x="379" style="font-family: Arial, sans-serif; font-size: 10px; fill: black; font-weight: bold;">Cuento</tspan></text><text x="736" y="513.9961436979905" text-anchor="end"><tspan alignment-baseline="middle" x="736" style="font-family: Arial, sans-serif; font-size: 10px; fill: black; font-weight: bold;">Distopía</tspan></text><text x="736" y="521.0127866856097" text-anchor="end"><tspan alignment-baseline="middle" x="736" style="font-family: Arial, sans-serif; font-size: 10px; fill: black; font-weight: bold;">Ficción Argentina</tspan></text><text x="736" y="527.9855896082807" text-anchor="end"><tspan alignment-baseline="middle" x="736" style="font-family: Arial, sans-serif; font-size: 10px; fill: black; font-weight: bold;">Feminismo</tspan></text><text x="736" y="534.8707124010552" text-anchor="end"><tspan alignment-baseline="middle" x="736" style="font-family: Arial, sans-serif; font-size: 10px; fill: black; font-weight: bold;">Espiritualidad</tspan></text><text x="736" y="541.6955551045259" text-anchor="end"><tspan alignment-baseline="middle" x="736" style="font-family: Arial, sans-serif; font-size: 10px; fill: black; font-weight: bold;">Memorias / Holocausto</tspan></text><text x="736" y="548.339557540085" text-anchor="end"><tspan alignment-baseline="middle" x="736" style="font-family: Arial, sans-serif; font-size: 10px; fill: black; font-weight: bold;">Drama Social</tspan></text><text x="736" y="554.5396793180432" text-anchor="end"><tspan alignment-baseline="middle" x="736" style="font-family: Arial, sans-serif; font-size: 10px; fill: black; font-weight: bold;">Romance Psicológico</tspan></text><text x="736" y="559.9999999999998" text-anchor="end"><tspan alignment-baseline="middle" x="736" style="font-family: Arial, sans-serif; font-size: 10px; fill: black; font-weight: bold;">Novela Negra Argentina</tspan></text></g><g><text x="2.5" y="138.5" text-anchor="middle" style="font-family: Arial, sans-serif; font-size: 12px; fill: rgb(123, 123, 123); font-weight: bold;">Categoría</text><text x="372.5" y="93.49999999999994" text-anchor="middle" style="font-family: Arial, sans-serif; font-size: 12px; fill: rgb(123, 123, 123); font-weight: bold;">Género</text><text x="742.5" y="-3.9999999999998863" text-anchor="middle" style="font-family: Arial, sans-serif; font-size: 12px; fill: rgb(123, 123, 123); font-weight: bold;">Subgénero</text></g></g></svg>